<svg width="35" height="35" viewBox="0 0 35 35" fill="none" xmlns="http://www.w3.org/2000/svg">
<path fill-rule="evenodd" clip-rule="evenodd" d="M10.2363 0.1045C12.0935 0.019 12.6857 0 17.4167 0C22.1477 0 22.7398 0.0205833 24.5955 0.1045C26.4512 0.188417 27.7178 0.4845 28.8262 0.913583C29.9868 1.35217 31.0397 2.03775 31.9105 2.92442C32.7972 3.79367 33.4812 4.845 33.9182 6.00717C34.3488 7.1155 34.6433 8.38217 34.7288 10.2347C34.8143 12.0951 34.8333 12.6873 34.8333 17.4167C34.8333 22.1477 34.8128 22.7398 34.7288 24.5971C34.6449 26.4496 34.3488 27.7163 33.9182 28.8246C33.4812 29.9869 32.796 31.04 31.9105 31.9105C31.0397 32.7972 29.9868 33.4812 28.8262 33.9182C27.7178 34.3488 26.4512 34.6433 24.5987 34.7288C22.7398 34.8143 22.1477 34.8333 17.4167 34.8333C12.6857 34.8333 12.0935 34.8128 10.2363 34.7288C8.38375 34.6449 7.11708 34.3488 6.00875 33.9182C4.84646 33.4811 3.79338 32.796 2.92283 31.9105C2.03677 31.0407 1.35108 29.9882 0.913583 28.8262C0.4845 27.7178 0.19 26.4512 0.1045 24.5987C0.019 22.7383 0 22.1461 0 17.4167C0 12.6857 0.0205833 12.0935 0.1045 10.2378C0.188417 8.38217 0.4845 7.1155 0.913583 6.00717C1.35173 4.84513 2.03794 3.79258 2.92442 2.92283C3.79373 2.03696 4.84575 1.35129 6.00717 0.913583C7.1155 0.4845 8.38217 0.19 10.2347 0.1045H10.2363ZM24.4546 3.2395C22.6179 3.15558 22.0669 3.13817 17.4167 3.13817C12.7664 3.13817 12.2154 3.15558 10.3788 3.2395C8.67983 3.31708 7.75833 3.6005 7.144 3.83958C6.33175 4.15625 5.75067 4.5315 5.14108 5.14108C4.56324 5.70325 4.11854 6.38761 3.83958 7.144C3.6005 7.75833 3.31708 8.67983 3.2395 10.3788C3.15558 12.2154 3.13817 12.7664 3.13817 17.4167C3.13817 22.0669 3.15558 22.6179 3.2395 24.4546C3.31708 26.1535 3.6005 27.075 3.83958 27.6893C4.11825 28.4446 4.56317 29.1302 5.14108 29.6923C5.70317 30.2702 6.38875 30.7151 7.144 30.9938C7.75833 31.2328 8.67983 31.5163 10.3788 31.5938C12.2154 31.6778 12.7648 31.6952 17.4167 31.6952C22.0685 31.6952 22.6179 31.6778 24.4546 31.5938C26.1535 31.5163 27.075 31.2328 27.6893 30.9938C28.5016 30.6771 29.0827 30.3018 29.6923 29.6923C30.2702 29.1302 30.7151 28.4446 30.9938 27.6893C31.2328 27.075 31.5163 26.1535 31.5938 24.4546C31.6778 22.6179 31.6952 22.0669 31.6952 17.4167C31.6952 12.7664 31.6778 12.2154 31.5938 10.3788C31.5163 8.67983 31.2328 7.75833 30.9938 7.144C30.6771 6.33175 30.3018 5.75067 29.6923 5.14108C29.1301 4.56328 28.4457 4.11858 27.6893 3.83958C27.075 3.6005 26.1535 3.31708 24.4546 3.2395ZM15.1921 22.7858C16.4345 23.3029 17.8179 23.3727 19.106 22.9832C20.3941 22.5937 21.507 21.7691 22.2547 20.6502C23.0024 19.5313 23.3384 18.1875 23.2054 16.8484C23.0724 15.5093 22.4786 14.2579 21.5254 13.3079C20.9178 12.7007 20.1831 12.2357 19.3742 11.9465C18.5653 11.6573 17.7023 11.551 16.8475 11.6353C15.9926 11.7196 15.167 11.9924 14.4302 12.4341C13.6934 12.8758 13.0637 13.4753 12.5864 14.1896C12.1091 14.9039 11.7961 15.715 11.67 16.5648C11.5438 17.4145 11.6077 18.2816 11.8569 19.1037C12.1061 19.9258 12.5344 20.6825 13.1111 21.3191C13.6879 21.9558 14.3986 22.4567 15.1921 22.7858ZM11.0865 11.0865C11.9178 10.2552 12.9047 9.5958 13.9908 9.14591C15.0769 8.69602 16.241 8.46446 17.4167 8.46446C18.5923 8.46446 19.7564 8.69601 20.8425 9.14591C21.9287 9.5958 22.9155 10.2552 23.7468 11.0865C24.5781 11.9178 25.2375 12.9047 25.6874 13.9908C26.1373 15.0769 26.3689 16.241 26.3689 17.4167C26.3689 18.5923 26.1373 19.7564 25.6874 20.8425C25.2375 21.9287 24.5781 22.9155 23.7468 23.7468C22.068 25.4257 19.7909 26.3689 17.4167 26.3689C15.0424 26.3689 12.7654 25.4257 11.0865 23.7468C9.40764 22.068 8.46446 19.7909 8.46446 17.4167C8.46446 15.0424 9.40764 12.7654 11.0865 11.0865ZM28.3543 9.79767C28.5603 9.60334 28.7253 9.36966 28.8393 9.11046C28.9534 8.85126 29.0143 8.5718 29.0184 8.28864C29.0225 8.00548 28.9698 7.72437 28.8633 7.46195C28.7569 7.19953 28.5989 6.96114 28.3986 6.7609C28.1984 6.56065 27.96 6.40262 27.6976 6.29615C27.4351 6.18969 27.154 6.13696 26.8709 6.14109C26.5877 6.14522 26.3082 6.20612 26.049 6.32019C25.7898 6.43425 25.5562 6.59917 25.3618 6.80517C24.9839 7.2058 24.777 7.73794 24.785 8.28864C24.7931 8.83934 25.0154 9.36523 25.4048 9.75467C25.7943 10.1441 26.3202 10.3664 26.8709 10.3745C27.4216 10.3825 27.9537 10.1756 28.3543 9.79767Z" fill="#0D0D0D"/>
</svg>