<svg width="342" height="561" viewBox="0 0 342 561" fill="none" xmlns="http://www.w3.org/2000/svg">
<g filter="url(#filter0_d_182_20)">
<g clip-path="url(#clip0_182_20)">
<rect x="15" y="120" width="327" height="429" rx="16" fill="white"/>
</g>
<rect x="18" y="123" width="321" height="423" rx="13" stroke="black" stroke-width="6"/>
</g>
<path fill-rule="evenodd" clip-rule="evenodd" d="M121.357 0L119 1.68335L166.178 102.776C160.106 106.73 155.11 112.889 151.881 120.398H212.107C207.639 110.009 199.79 102.204 190.386 99.2487L223.451 28.3989L221.094 26.7155L187.583 98.5228C185.764 98.1505 183.898 97.9569 181.994 97.9569C177.256 97.9569 172.744 99.1566 168.643 101.325L121.357 0Z" fill="black"/>
<defs>
<filter id="filter0_d_182_20" x="0" y="120" width="342" height="441" filterUnits="userSpaceOnUse" color-interpolation-filters="sRGB">
<feFlood flood-opacity="0" result="BackgroundImageFix"/>
<feColorMatrix in="SourceAlpha" type="matrix" values="0 0 0 0 0 0 0 0 0 0 0 0 0 0 0 0 0 0 127 0" result="hardAlpha"/>
<feOffset dx="-15" dy="12"/>
<feComposite in2="hardAlpha" operator="out"/>
<feColorMatrix type="matrix" values="0 0 0 0 0 0 0 0 0 0 0 0 0 0 0 0 0 0 1 0"/>
<feBlend mode="normal" in2="BackgroundImageFix" result="effect1_dropShadow_182_20"/>
<feBlend mode="normal" in="SourceGraphic" in2="effect1_dropShadow_182_20" result="shape"/>
</filter>
<clipPath id="clip0_182_20">
<rect x="15" y="120" width="327" height="429" rx="16" fill="white"/>
</clipPath>
</defs>
</svg>